HIERARCHY
ROOT Hips
{
  OFFSET -2.35817 99.5522 45.6721
  CHANNELS 6 Xposition Yposition Zposition Zrotation Xrotation Yrotation
  JOINT RightUpLeg
  {
    OFFSET -8.9458 -8.66707 0.101652
    CHANNELS 3 Zrotation Xrotation Yrotation
    JOINT RightLeg
    {
      OFFSET 0 -44.4227 1.3727
      CHANNELS 3 Zrotation Xrotation Yrotation
      JOINT RightFoot
      {
        OFFSET 0.253549 -42.0924 -1.46059
        CHANNELS 3 Zrotation Xrotation Yrotation
        JOINT RightToes
        {
          OFFSET 0.04 -4.41509 8.4991
          CHANNELS 3 Zrotation Xrotation Yrotation
          End Site
          {
            OFFSET -0.08 -0.137448 9.77979
          }
        }
      }
    }
  }
  JOINT Spine
  {
    OFFSET 0 11.8905 0
    CHANNELS 3 Zrotation Xrotation Yrotation
    JOINT Spine1
    {
      OFFSET 0 25.6574 0.127663
      CHANNELS 3 Zrotation Xrotation Yrotation
      JOINT HEad
      {
        OFFSET 0 8.73416 0.011341
        CHANNELS 3 Zrotation Xrotation Yrotation
        End Site
        {
          OFFSET -0.29 12.7742 2.51395
        }
      }
      JOINT LeftShoulder1
      {
        OFFSET 8.99 -0.362252 -0.22
        CHANNELS 3 Zrotation Xrotation Yrotation
        JOINT LeftArm
        {
          OFFSET 10.2827 -0.00338 0.322123
          CHANNELS 3 Zrotation Xrotation Yrotation
          JOINT LeftForeArm
          {
            OFFSET 32.7669 0.099144 -1.42434
            CHANNELS 3 Zrotation Xrotation Yrotation
            JOINT LeftHand
            {
              OFFSET 27.5643 0.085362 1.02216
              CHANNELS 3 Zrotation Xrotation Yrotation
              End Site
              {
                OFFSET 16.7443 -0.6 1.50291
              }
            }
          }
        }
      }
      JOINT RightShoulder
      {
        OFFSET -8.99 -0.362252 -0.22
        CHANNELS 3 Zrotation Xrotation Yrotation
        JOINT RightArm
        {
          OFFSET -10.2827 -0.00338 0.322123
          CHANNELS 3 Zrotation Xrotation Yrotation
          JOINT RightForeArm
          {
            OFFSET -32.8971 0.099144 -1.42434
            CHANNELS 3 Zrotation Xrotation Yrotation
            JOINT RightHand
            {
              OFFSET -27.4921 0.085362 1.02216
              CHANNELS 3 Zrotation Xrotation Yrotation
              End Site
              {
                OFFSET -16.6312 -0.6 1.50291
              }
            }
          }
        }
      }
    }
  }
  JOINT LeftUpLeg
  {
    OFFSET 8.9458 -8.66707 0.101652
    CHANNELS 3 Zrotation Xrotation Yrotation
    JOINT LeftLeg
    {
      OFFSET 0 -44.4227 1.3727
      CHANNELS 3 Zrotation Xrotation Yrotation
      JOINT LeftFoot
      {
        OFFSET -0.253549 -42.0924 -1.46059
        CHANNELS 3 Zrotation Xrotation Yrotation
        JOINT LeftToes
        {
          OFFSET -0.04 -4.41509 8.4991
          CHANNELS 3 Zrotation Xrotation Yrotation
          End Site
          {
            OFFSET 0.08 -0.047448 9.77979
          }
        }
      }
    }
  }
}
MOTION
Frames:	17
Frame Time:	0.0166667
-3.07467 98.3895 20.8171 3.04956 1.87448 174.12 5.0156 5.74349 -1.36299 4.07674 35.7974 -8.05519 -1.19305 -24.6335 -0.453829 0.0462048 0.000533964 0.662642 2.79822 2.85624 0.769848 4.28519 0.966216 -0.0389118 -3.82294 2.86643 12.2538 -1.73937e-016 -3.97569e-016 -7.95139e-016 -81.9571 -30.9484 -6.09826 -27.8886 10.3255 0.536779 0.368473 9.90896 -0.00117925 -10.9213 -0.135323 8.68496 94.6293 -14.6031 23.5875 25.3813 13.1731 7.42972 -0.369625 9.91382 0.00119884 4.6384 -23.0249 1.75563 -6.64637 14.3462 25.3846 -16.8089 6.77058 1.6153 5.69107 11.5102 2.00077 
-3.17271 98.5362 19.0778 2.77856 2.1451 174.741 4.14303 5.5376 -1.40082 4.81076 37.9977 -8.47065 -0.751724 -22.5678 -0.351779 0.0462048 0.000533964 0.662642 2.76394 2.7789 0.553775 3.34991 1.70276 -0.0505984 -3.30109 2.28417 11.704 -1.16786e-015 -3.97569e-016 1.59028e-015 -82.2458 -30.9883 -7.60752 -27.2107 10.1033 2.00432 0.368473 9.90896 -0.00117925 -10.6716 -0.106545 8.49847 94.9658 -15.8038 22.4659 25.0721 13.0873 7.02041 -0.369625 9.91382 0.00119884 3.98205 -22.7943 1.49879 -6.85838 16.4135 24.4866 -17.0056 5.10611 1.39392 3.88752 12.1702 2.46349 
-3.30206 98.815 17.3007 2.37883 2.46154 175.325 2.89869 5.12246 -1.33393 6.2613 40.2186 -10.1491 -0.278653 -19.2789 -0.255162 0.0462048 0.000533964 0.662642 2.56923 2.76101 0.372717 2.58647 2.17981 -0.0463099 -3.2033 2.27998 11.2372 -7.20594e-016 0 -7.95139e-016 -82.5132 -31.2401 -8.87418 -26.6213 9.93022 3.27166 0.368473 9.90896 -0.00117925 -10.7176 -0.111319 8.57421 95.2267 -17.1374 20.901 24.87 13.0343 6.79879 -0.369625 9.91382 0.00119884 3.04608 -21.791 -0.302054 -7.32092 16.9852 25.2455 -16.8165 3.95786 1.21487 2.84307 12.3158 2.67994 
-3.45593 99.1153 15.5459 1.94681 2.75825 175.759 1.53974 4.33016 -1.40086 7.82408 42.7518 -12.0068 0.249334 -15.5569 -0.178892 0.0462048 0.000533964 0.662642 2.298 2.78196 0.240396 2.01652 2.53447 -0.0390376 -3.35569 2.47275 10.9498 -7.45443e-017 3.97569e-016 -1.59028e-015 -82.7582 -31.515 -9.90612 -26.2263 9.84096 4.0239 0.368473 9.90896 -0.00117925 -11.0202 -0.146918 8.80795 95.4849 -18.5265 19.2816 24.6507 12.9849 6.57359 -0.369625 9.91382 0.00119884 2.16252 -20.5402 -2.22246 -7.82037 17.0753 26.3654 -16.5937 2.88519 1.04252 2.13347 12.295 2.80206 
-3.64275 99.3589 13.8555 1.56313 2.94951 175.805 0.196636 2.94351 -1.87608 8.71118 45.9781 -13.0335 0.88377 -11.8232 -0.135233 0.0462048 0.000533964 0.662642 1.96816 2.87365 0.196552 1.78656 2.74852 -0.0379086 -3.75811 2.67102 11.0774 -3.23025e-016 -3.97569e-016 -7.95139e-016 -82.9127 -31.7683 -10.4419 -26.257 9.88109 3.79875 0.368473 9.90896 -0.00117925 -11.715 -0.230439 9.1921 95.9034 -19.8731 17.9333 24.3176 12.8877 6.08126 -0.369625 9.91382 0.00119884 1.53663 -19.4754 -3.02282 -8.20264 17.4372 26.9394 -16.6208 1.60439 0.858252 2.29906 12.1033 2.72801 
-3.83785 99.5539 12.2514 1.21 3.05276 175.638 -1.01565 1.12288 -2.51023 9.04586 49.566 -13.3546 1.5759 -8.45946 -0.116634 0.0462048 0.000533964 0.662642 1.5857 2.98035 0.203035 1.715 2.91793 -0.0392688 -4.23632 2.7948 11.4345 -4.96962e-017 0 -0 -82.9441 -31.889 -10.659 -26.5073 10.0509 2.83826 0.368473 9.90896 -0.00117925 -12.4869 -0.325238 9.61119 96.345 -21.1618 16.836 23.9084 12.7819 5.51002 -0.369625 9.91382 0.00119884 1.04819 -18.5504 -3.31249 -8.55038 17.866 27.2666 -16.7294 0.309314 0.675875 2.49814 11.8334 2.62835 
-4.02011 99.6657 10.7907 0.893238 3.04822 175.347 -1.8564 -1.12625 -3.26057 8.17159 53.4904 -12.1975 2.40513 -5.74665 -0.133291 0.0462048 0.000533964 0.662642 1.14878 3.04664 0.241205 1.68077 3.17675 -0.0440669 -4.58499 2.64153 11.9342 4.96962e-017 3.97569e-016 -0 -82.7876 -31.6758 -10.6292 -26.859 10.3783 1.10823 0.368473 9.90896 -0.00117925 -13.0783 -0.404095 9.96331 96.7729 -22.3437 16.1082 23.4179 12.7029 5.0107 -0.369625 9.91382 0.00119884 0.694195 -17.8976 -3.19407 -8.89638 18.4633 27.2378 -16.8345 -0.878541 0.505349 1.78174 11.5698 2.68742 
-4.18737 99.7444 9.40943 0.60654 2.9625 174.958 -2.52594 -3.55417 -3.79476 6.84596 57.1681 -10.5322 3.03513 -4.40765 -0.147096 0.0462048 0.000533964 0.662642 0.698529 3.1035 0.292284 1.64868 3.39264 -0.0476233 -4.87502 2.39133 12.515 -4.96962e-016 3.97569e-016 7.95139e-016 -82.4885 -31.3344 -10.4171 -27.2211 10.8004 -1.03529 0.368473 9.90896 -0.00117925 -13.4584 -0.456806 10.2 97.0968 -23.4208 15.6763 22.884 12.6144 4.43053 -0.369625 9.91382 0.00119884 0.416081 -17.3726 -2.91096 -9.23335 19.0592 27.172 -16.9609 -2.02563 0.338765 1.01949 11.3323 2.76036 
-4.32838 99.8367 8.0579 0.333115 2.79146 174.508 -3.06586 -5.91473 -3.67835 6.47656 59.9807 -9.7393 2.97485 -5.71038 -0.116932 0.0462048 0.000533964 0.662642 0.266704 3.17404 0.328486 1.51663 3.41601 -0.043385 -5.12661 2.15984 13.1219 -2.48481e-016 1.59028e-015 -0 -81.9788 -30.9973 -9.96051 -27.5102 11.3061 -3.38343 0.368473 9.90896 -0.00117925 -13.4622 -0.45742 10.2273 97.1641 -24.3567 15.5594 22.3312 12.4634 3.52868 -0.369625 9.91382 0.00119884 0.177052 -16.8833 -2.69444 -9.57018 19.4829 27.4129 -17.1436 -3.1878 0.166406 1.09719 11.2182 2.72046 
-4.44925 99.9182 6.75063 0.107822 2.60805 174.058 -3.40575 -8.21195 -3.15122 6.60434 62.0207 -9.41102 2.75317 -8.30063 -0.0646288 0.0462048 0.000533964 0.662642 -0.119906 3.22639 0.358164 1.36403 3.43271 -0.0379005 -5.30302 1.93524 13.6497 -9.93923e-017 0 7.95139e-016 -81.5392 -30.6783 -9.71536 -27.6213 11.7848 -5.52348 0.368473 9.90896 -0.00117925 -13.2356 -0.426215 10.0799 97.0971 -25.2162 15.5899 21.7859 12.3309 2.72196 -0.369625 9.91382 0.00119884 -0.021359 -16.4064 -2.66227 -9.93618 19.8149 27.7797 -17.2708 -4.27547 0.003948 1.01067 11.0792 2.69872 
-4.54789 99.9829 5.48861 -0.0164929 2.49129 173.706 -3.48943 -10.3441 -2.24359 7.20411 63.1154 -9.5445 2.80069 -11.3107 0.00387077 0.0462048 0.000533964 0.662642 -0.403229 3.22444 0.377981 1.23239 3.60377 -0.0356684 -5.34861 1.73222 13.9315 -4.96962e-017 -7.95139e-016 1.59028e-015 -81.4189 -30.4306 -10.1511 -27.4385 12.1462 -6.9461 0.368473 9.90896 -0.00117925 -12.7853 -0.364066 9.72839 96.8942 -26.0811 15.5938 21.2873 12.2962 2.39012 -0.369625 9.91382 0.00119884 -0.167401 -15.8642 -3.21294 -10.42 20.0137 28.2891 -17.1568 -5.15411 -0.124953 -0.294596 10.7483 2.82887 
-4.63762 100.022 4.26266 -0.0980777 2.41799 173.376 -3.40715 -12.3676 -1.13369 8.05323 63.4313 -10.0842 2.92474 -14.549 0.0841709 0.0462048 0.000533964 0.662642 -0.645171 3.20393 0.395211 1.13337 3.85407 -0.0362894 -5.3524 1.58458 14.0975 -3.97569e-016 0 -7.95139e-016 -81.5974 -30.2758 -11.1399 -27.0497 12.3856 -7.70479 0.368473 9.90896 -0.00117925 -12.3606 -0.302588 9.27114 96.7134 -26.8739 15.59 20.8463 12.3269 2.39803 -0.369625 9.91382 0.00119884 -0.298216 -15.3268 -3.72764 -10.8389 20.2813 28.6906 -17.0512 -6.01457 -0.253224 -1.77576 10.3781 2.97525 
-4.73493 100.004 3.06781 -0.195615 2.41224 173.014 -3.29508 -14.288 0.000388418 8.79835 63.0954 -10.9276 3.08002 -17.7815 0.178574 0.0462048 0.000533964 0.662642 -0.913001 3.19373 0.422459 1.10634 4.20606 -0.0424343 -5.41239 1.52264 14.221 -0 -7.95139e-016 -0 -82.2548 -30.3183 -12.8503 -26.4365 12.4341 -7.55082 0.368473 9.90896 -0.00117925 -12.3339 -0.286965 8.7766 96.8073 -27.5141 15.533 20.4869 12.4225 2.77885 -0.369625 9.91382 0.00119884 -0.505841 -14.8775 -3.57434 -10.9802 20.9513 28.6333 -17.2467 -7.09311 -0.422611 -2.6432 10.1167 3.04355 
-4.8281 99.9874 1.89242 -0.256472 2.41108 172.645 -3.09477 -16.152 1.10861 9.38268 62.0492 -11.873 3.23952 -20.2674 0.259692 0.0462048 0.000533964 0.662642 -1.13275 3.1783 0.440416 1.10991 4.52805 -0.0494076 -5.44156 1.57206 14.3057 -3.97569e-016 -7.95139e-016 -0 -83.0906 -30.3081 -14.8851 -25.7734 12.3759 -6.88622 0.368473 9.90896 -0.00117925 -12.3484 -0.278277 8.3052 96.8808 -28.0932 15.4336 20.1943 12.5587 3.41068 -0.369625 9.91382 0.00119884 -0.69883 -14.4073 -3.21404 -11.0088 21.6053 28.4428 -17.442 -8.11876 -0.584291 -3.20298 9.8104 3.04501 
-4.90741 100.036 0.723223 -0.219917 2.34804 172.281 -2.78713 -18.0678 2.06166 9.59925 60.2283 -12.8377 3.42964 -20.6015 0.295136 0.0462048 0.000533964 0.662642 -1.21868 3.14728 0.427567 1.11895 4.67256 -0.0528972 -5.38087 1.78312 14.3763 9.93923e-017 -7.95139e-016 3.18055e-015 -83.8194 -30.0432 -16.9066 -25.215 12.2575 -5.98238 0.368473 9.90896 -0.00117925 -12.1143 -0.246807 7.95622 96.6711 -28.687 15.2643 19.9735 12.7194 4.23882 -0.369625 9.91382 0.00119884 -0.76604 -13.8005 -2.96724 -11.0652 21.8211 28.3732 -17.3156 -8.81981 -0.685843 -3.60425 9.28654 2.95407 
-4.98332 100.096 -0.43989 -0.175058 2.25854 171.909 -2.44227 -19.8671 2.90295 9.54811 57.8003 -13.4041 3.40901 -20.5434 0.287298 0.0462048 0.000533964 0.662642 -1.27347 3.11408 0.403152 1.12364 4.70938 -0.0543784 -5.24308 2.11253 14.444 1.98785e-016 0 -0 -84.4475 -29.5728 -18.8456 -24.7676 12.1073 -4.99002 0.368473 9.90896 -0.00117925 -11.7998 -0.209743 7.68161 96.3344 -29.2608 15.0972 19.7901 12.8782 5.09483 -0.369625 9.91382 0.00119884 -0.824467 -13.1609 -2.61473 -11.0483 21.9216 28.2736 -17.2013 -9.43509 -0.776806 -3.53147 8.74901 2.78794 
-5.06777 100.126 -1.60777 -0.221336 2.14437 171.493 -2.16087 -21.3971 3.65603 9.57916 54.9159 -13.0309 2.73889 -21.8963 0.207435 0.0462048 0.000533964 0.662642 -1.40826 3.09439 0.383332 1.10282 4.60889 -0.0539204 -5.01065 2.57821 14.5515 2.20695e-032 7.95139e-016 -1.59028e-015 -84.8855 -28.9165 -20.4749 -24.5044 11.9745 -4.14156 0.368473 9.90896 -0.00117925 -11.4891 -0.176147 7.51826 95.9161 -29.8206 14.9801 19.6245 13.0052 5.78002 -0.369625 9.91382 0.00119884 -0.990191 -12.5834 -1.93947 -10.8682 22.1567 28.0224 -17.4443 -10.1993 -0.909066 -2.66637 8.48383 2.57845 
